<svg width="50" height="35" viewBox="0 0 50 35" fill="none" xmlns="http://www.w3.org/2000/svg">
<path fill-rule="evenodd" clip-rule="evenodd" d="M50 20C50 22.7614 47.7614 25 45 25H32C30.8954 25 30 25.8954 30 27V28C30 29.1046 30.8954 30 32 30H48C49.1046 30 50 30.8954 50 32V33C50 34.1046 49.1046 35 48 35H25C22.2386 35 20 32.7614 20 30V27C20 25.8954 19.1046 25 18 25H5C2.23858 25 0 22.7614 0 20V5C0 2.23858 2.23858 0 5 0H45C47.7614 0 50 2.23858 50 5V20ZM5 13C5 14.1046 5.89543 15 7 15H43C44.1046 15 45 14.1046 45 13V12C45 10.8954 44.1046 10 43 10H7C5.89543 10 5 10.8954 5 12V13Z" fill="#2E2F38" style="fill:#2E2F38;fill:color(display-p3 0.1804 0.1843 0.2196);fill-opacity:1;"/>
</svg>
