<svg width="229" height="20" viewBox="0 0 229 20" fill="none" xmlns="http://www.w3.org/2000/svg">
<path fill-rule="evenodd" clip-rule="evenodd" d="M61 0H71V4H61V8V12V16V20H49V16V12V8V4H39V0H49H61ZM205 4V8H217H229V12V16V20H217H205H193V16H205H217V12H205H193V8V4V0H205H217H229V4H217H205ZM12 16H0V20H12H24H36V16V12V8H24H12V4H24H36V0H24H12H0V4V8V12H12H24V16H12ZM86 0H98H110V4V8V12V16V20H98V16V12H86V16V20H74V16V12V8V4V0H86ZM86 8V4H98V8H86ZM115 0H127H139H147V4H139H127V8V12V16H139H147V20H139H127H115V16V12V8V4V0ZM164 0H152V4V8V12V16V20H164V16V12H176V16V20H188V16V12H176V8H188V4V0H176V4V8H164V4V0Z" fill="black" style="fill:black;fill-opacity:1;"/>
</svg>
