<svg width="530" height="50" viewBox="0 0 530 50" fill="none" xmlns="http://www.w3.org/2000/svg">
<path fill-rule="evenodd" clip-rule="evenodd" d="M80 20C80 25.5228 75.5228 30 70 30H64C61.7909 30 60 31.7909 60 34V36C60 38.2091 61.7909 40 64 40H76C78.2091 40 80 41.7909 80 44V46C80 48.2091 78.2091 50 76 50H50C44.4772 50 40 45.5228 40 40V34C40 31.7909 38.2091 30 36 30H10C4.47715 30 0 25.5228 0 20V10C0 4.47715 4.47715 0 10 0H70C75.5228 0 80 4.47715 80 10V20ZM30 16C30 18.2091 31.7909 20 34 20H66C68.2091 20 70 18.2091 70 16V14C70 11.7909 68.2091 10 66 10H34C31.7909 10 30 11.7909 30 14V16Z" fill="#2E2F38" style="fill:#2E2F38;fill:color(display-p3 0.1804 0.1843 0.2196);fill-opacity:1;"/>
<path d="M120 36C120 38.2091 121.791 40 124 40H156C158.209 40 160 38.2091 160 36V4C160 1.79086 161.791 0 164 0H166C168.209 0 170 1.79086 170 4V40C170 45.5228 165.523 50 160 50H100C94.4772 50 90 45.5228 90 40V4C90 1.79086 91.7909 0 94 0H116C118.209 0 120 1.79086 120 4V36Z" fill="#2E2F38" style="fill:#2E2F38;fill:color(display-p3 0.1804 0.1843 0.2196);fill-opacity:1;"/>
<path fill-rule="evenodd" clip-rule="evenodd" d="M260 46C260 48.2091 258.209 50 256 50H254C251.791 50 250 48.2091 250 46V34C250 31.7909 248.209 30 246 30H214C211.791 30 210 31.7909 210 34V46C210 48.2091 208.209 50 206 50H184C181.791 50 180 48.2091 180 46V10C180 4.47715 184.477 0 190 0H250C255.523 0 260 4.47715 260 10V46ZM210 16C210 18.2091 211.791 20 214 20H246C248.209 20 250 18.2091 250 16V14C250 11.7909 248.209 10 246 10H214C211.791 10 210 11.7909 210 14V16Z" fill="#2E2F38" style="fill:#2E2F38;fill:color(display-p3 0.1804 0.1843 0.2196);fill-opacity:1;"/>
<path fill-rule="evenodd" clip-rule="evenodd" d="M350 20C350 25.5228 345.523 30 340 30H334C331.791 30 330 31.7909 330 34V36C330 38.2091 331.791 40 334 40H346C348.209 40 350 41.7909 350 44V46C350 48.2091 348.209 50 346 50H320C314.477 50 310 45.5228 310 40V34C310 31.7909 308.209 30 306 30H304C301.791 30 300 31.7909 300 34V46C300 48.2091 298.209 50 296 50H274C271.791 50 270 48.2091 270 46V4C270 1.79086 271.791 0 274 0H340C345.523 0 350 4.47715 350 10V20ZM300 16C300 18.2091 301.791 20 304 20H336C338.209 20 340 18.2091 340 16V14C340 11.7909 338.209 10 336 10H304C301.791 10 300 11.7909 300 14V16Z" fill="#2E2F38" style="fill:#2E2F38;fill:color(display-p3 0.1804 0.1843 0.2196);fill-opacity:1;"/>
<path fill-rule="evenodd" clip-rule="evenodd" d="M420 36C420 38.2091 421.791 40 424 40H436C438.209 40 440 41.7909 440 44V46C440 48.2091 438.209 50 436 50H410C404.477 50 400 45.5228 400 40V34C400 31.7909 398.209 30 396 30H394C391.791 30 390 31.7909 390 34V46C390 48.2091 388.209 50 386 50H364C361.791 50 360 48.2091 360 46V4C360 1.79086 361.791 0 364 0H430C435.523 0 440 4.47715 440 10V20C440 25.5228 435.523 30 430 30H424C421.791 30 420 31.7909 420 34V36ZM390 16C390 18.2091 391.791 20 394 20H426C428.209 20 430 18.2091 430 16V14C430 11.7909 428.209 10 426 10H394C391.791 10 390 11.7909 390 14V16Z" fill="#2E2F38" style="fill:#2E2F38;fill:color(display-p3 0.1804 0.1843 0.2196);fill-opacity:1;"/>
<path d="M480 16C480 18.2091 481.791 20 484 20H516C518.209 20 520 18.2091 520 16V4C520 1.79086 521.791 0 524 0H526C528.209 0 530 1.79086 530 4V40C530 45.5228 525.523 50 520 50H454C451.791 50 450 48.2091 450 46V44C450 41.7909 451.791 40 454 40H516C518.209 40 520 38.2091 520 36V34C520 31.7909 518.209 30 516 30H460C454.477 30 450 25.5228 450 20V4C450 1.79086 451.791 0 454 0H476C478.209 0 480 1.79086 480 4V16Z" fill="#2E2F38" style="fill:#2E2F38;fill:color(display-p3 0.1804 0.1843 0.2196);fill-opacity:1;"/>
</svg>
