<svg width="350" height="35" viewBox="0 0 350 35" fill="none" xmlns="http://www.w3.org/2000/svg">
<path fill-rule="evenodd" clip-rule="evenodd" d="M50 20C50 22.7614 47.7614 25 45 25H32C30.8954 25 30 25.8954 30 27V28C30 29.1046 30.8954 30 32 30H48C49.1046 30 50 30.8954 50 32V33C50 34.1046 49.1046 35 48 35H25C22.2386 35 20 32.7614 20 30V27C20 25.8954 19.1046 25 18 25H5C2.23858 25 0 22.7614 0 20V5C0 2.23858 2.23858 0 5 0H45C47.7614 0 50 2.23858 50 5V20ZM5 13C5 14.1046 5.89543 15 7 15H43C44.1046 15 45 14.1046 45 13V12C45 10.8954 44.1046 10 43 10H7C5.89543 10 5 10.8954 5 12V13Z" fill="#2E2F38" style="fill:#2E2F38;fill:color(display-p3 0.1804 0.1843 0.2196);fill-opacity:1;"/>
<path d="M65 23C65 24.1046 65.8954 25 67 25H103C104.105 25 105 24.1046 105 23V2C105 0.89543 105.895 0 107 0H108C109.105 0 110 0.895431 110 2V30C110 32.7614 107.761 35 105 35H65C62.2386 35 60 32.7614 60 30V2C60 0.89543 60.8954 0 62 0H63C64.1046 0 65 0.89543 65 2V23Z" fill="#2E2F38" style="fill:#2E2F38;fill:color(display-p3 0.1804 0.1843 0.2196);fill-opacity:1;"/>
<path fill-rule="evenodd" clip-rule="evenodd" d="M170 33C170 34.1046 169.105 35 168 35H167C165.895 35 165 34.1046 165 33V27C165 25.8954 164.105 25 163 25H127C125.895 25 125 25.8954 125 27V33C125 34.1046 124.105 35 123 35H122C120.895 35 120 34.1046 120 33V5C120 2.23858 122.239 0 125 0H165C167.761 0 170 2.23858 170 5V33ZM125 13C125 14.1046 125.895 15 127 15H163C164.105 15 165 14.1046 165 13V12C165 10.8954 164.105 10 163 10H127C125.895 10 125 10.8954 125 12V13Z" fill="#2E2F38" style="fill:#2E2F38;fill:color(display-p3 0.1804 0.1843 0.2196);fill-opacity:1;"/>
<path fill-rule="evenodd" clip-rule="evenodd" d="M230 20C230 22.7614 227.761 25 225 25H212C210.895 25 210 25.8954 210 27V28C210 29.1046 210.895 30 212 30H228C229.105 30 230 30.8954 230 32V33C230 34.1046 229.105 35 228 35H205C202.239 35 200 32.7614 200 30V27C200 25.8954 199.105 25 198 25H187C185.895 25 185 25.8954 185 27V33C185 34.1046 184.105 35 183 35H182C180.895 35 180 34.1046 180 33V2C180 0.89543 180.895 0 182 0H225C227.761 0 230 2.23858 230 5V20ZM185 13C185 14.1046 185.895 15 187 15H223C224.105 15 225 14.1046 225 13V12C225 10.8954 224.105 10 223 10H187C185.895 10 185 10.8954 185 12V13Z" fill="#2E2F38" style="fill:#2E2F38;fill:color(display-p3 0.1804 0.1843 0.2196);fill-opacity:1;"/>
<path fill-rule="evenodd" clip-rule="evenodd" d="M270 28C270 29.1046 270.895 30 272 30H288C289.105 30 290 30.8954 290 32V33C290 34.1046 289.105 35 288 35H265C262.239 35 260 32.7614 260 30V27C260 25.8954 259.105 25 258 25H247C245.895 25 245 25.8954 245 27V33C245 34.1046 244.105 35 243 35H242C240.895 35 240 34.1046 240 33V2C240 0.89543 240.895 0 242 0H285C287.761 0 290 2.23858 290 5V20C290 22.7614 287.761 25 285 25H272C270.895 25 270 25.8954 270 27V28ZM245 13C245 14.1046 245.895 15 247 15H283C284.105 15 285 14.1046 285 13V12C285 10.8954 284.105 10 283 10H247C245.895 10 245 10.8954 245 12V13Z" fill="#2E2F38" style="fill:#2E2F38;fill:color(display-p3 0.1804 0.1843 0.2196);fill-opacity:1;"/>
<path d="M305 13C305 14.1046 305.895 15 307 15H343C344.105 15 345 14.1046 345 13V2C345 0.89543 345.895 0 347 0H348C349.105 0 350 0.895431 350 2V30C350 32.7614 347.761 35 345 35H302C300.895 35 300 34.1046 300 33V32C300 30.8954 300.895 30 302 30H338C339.105 30 340 29.1046 340 28V27C340 25.8954 339.105 25 338 25H305C302.239 25 300 22.7614 300 20V2C300 0.89543 300.895 0 302 0H303C304.105 0 305 0.895431 305 2V13Z" fill="#2E2F38" style="fill:#2E2F38;fill:color(display-p3 0.1804 0.1843 0.2196);fill-opacity:1;"/>
</svg>
